<svg width="90" height="47" viewBox="0 0 90 47" fill="none" xmlns="http://www.w3.org/2000/svg">
<path fill-rule="evenodd" clip-rule="evenodd" d="M18.6107 20.3758C18.7076 20.7511 19.0857 20.9449 19.4699 20.8176C22.6193 19.851 25.7763 19.1896 29.034 18.7085C29.4073 18.6586 29.6116 18.2738 29.4743 17.8874C29.1851 17.0738 29.0389 16.6681 28.7432 15.8588C28.6176 15.5154 28.2782 15.2901 27.9309 15.3277C24.7474 15.719 21.6717 16.2971 18.5892 17.1877C18.1877 17.3132 17.9413 17.7616 18.0425 18.1592C18.2676 19.0444 18.3813 19.4877 18.6107 20.3758Z" fill="#2C2A29"/>
<path fill-rule="evenodd" clip-rule="evenodd" d="M31.3747 20.8205C31.2524 20.4567 30.9207 20.2137 30.5927 20.2566C25.6088 20.8901 20.7558 22.1188 16.1537 24.1496C15.818 24.3079 15.6166 24.7289 15.6871 25.1001C15.8674 26.0491 15.9584 26.5242 16.1426 27.475C16.2213 27.8817 16.6022 28.0688 16.9778 27.8861C21.6521 25.7512 26.5921 24.3918 31.6596 23.5813C31.9817 23.5286 32.1459 23.1606 32.0227 22.7813C31.7673 21.9951 31.6376 21.603 31.3747 20.8205Z" fill="#2C2A29"/>
<path fill-rule="evenodd" clip-rule="evenodd" d="M31.3608 26.1206C31.2373 25.7324 30.8761 25.479 30.5331 25.5495C27.4212 26.2227 24.3794 27.0342 21.3662 28.0668C20.9841 28.2068 20.7688 28.6088 20.8694 28.9786C21.1088 29.8597 21.2294 30.3011 21.472 31.185C21.5859 31.6 22.0531 31.8125 22.4835 31.649C25.4958 30.5733 28.5382 29.634 31.6471 28.8807C31.9453 28.8085 32.0921 28.4599 31.9811 28.1001C31.7365 27.3066 31.6123 26.9106 31.3608 26.1206Z" fill="#2C2A29"/>
<path fill-rule="evenodd" clip-rule="evenodd" d="M43.3977 25.2842C43.3977 24.2166 42.7169 23.7734 41.375 23.7734H39.7727V26.7947H41.3548C42.6567 26.7947 43.3977 26.2712 43.3977 25.2842ZM41.0544 18.4761C40.6339 18.4761 40.1933 18.5164 39.7727 18.5769V21.2557H41.1346C42.3362 21.2557 42.897 20.7522 42.897 19.886C42.897 19.0603 42.3163 18.4761 41.0544 18.4761ZM46.6822 25.4252C46.6822 27.7817 44.319 29.3529 41.6352 29.3529H36.7085V16.3411C38.3507 16.0994 39.5925 15.9383 41.0544 15.9383C43.7581 15.9383 45.9213 17.2071 45.9213 19.4229C45.9213 20.6917 45.2602 21.5377 44.0787 22.001C45.9011 22.5246 46.6822 23.6324 46.6822 25.4252Z" fill="#2C2A29"/>
<path fill-rule="evenodd" clip-rule="evenodd" d="M53.7395 26.7747V25.0424H53.1587C51.7969 25.0424 50.5551 25.3446 50.5551 26.2913C50.5551 27.0164 51.0358 27.2783 52.0172 27.2783C52.7983 27.2783 53.4391 27.0365 53.7395 26.7747ZM56.6835 23.008V28.3055C55.6021 29.1313 53.8597 29.5743 51.4964 29.5743C49.3936 29.5743 47.6511 28.7083 47.6511 26.7947C47.6511 23.9144 50.4349 23.2094 53.7395 23.1087C53.6794 21.86 53.1787 21.5377 52.0771 21.5377C51.4964 21.5377 49.9543 21.7996 49.7541 21.7996C49.2733 21.7996 48.8929 21.4974 48.5724 20.6112L48.332 19.886C49.5737 19.4229 50.7954 19.1006 52.1173 19.1006C55.0013 19.1006 56.6835 20.1882 56.6835 23.008Z" fill="#2C2A29"/>
<path fill-rule="evenodd" clip-rule="evenodd" d="M73.8203 22.1823V29.3529H70.8362V23.2497C70.8362 22.1823 70.1554 21.6384 68.9537 21.6384C68.3929 21.6384 67.8523 21.7593 67.4115 21.9406C67.5717 22.3837 67.652 22.8672 67.652 23.3907V29.3529H64.6678V23.2497C64.6678 22.1823 63.9868 21.6384 62.7851 21.6384C62.3246 21.6384 61.8839 21.6989 61.5034 21.7996V29.3529H58.4792L58.4993 20.3896C59.701 19.5437 61.5835 19.0803 63.1658 19.0803C64.4274 19.0803 65.509 19.5033 66.2899 20.1882C67.3114 19.5234 68.7334 19.0803 69.935 19.0803C72.1181 19.0803 73.8203 20.2486 73.8203 22.1823Z" fill="#2C2A29"/>
</svg>
